<?xml version="1.0" encoding="utf-8"?>
<!-- Generator: Adobe Illustrator 17.0.0, SVG Export Plug-In . SVG Version: 6.00 Build 0)  -->
<!DOCTYPE svg PUBLIC "-//W3C//DTD SVG 1.1//EN" "http://www.w3.org/Graphics/SVG/1.1/DTD/svg11.dtd">
<svg version="1.1" id="Layer_1" xmlns="http://www.w3.org/2000/svg" xmlns:xlink="http://www.w3.org/1999/xlink" x="0px" y="0px"
	 width="70px" height="70px" viewBox="0 0 70 70" enable-background="new 0 0 70 70" xml:space="preserve">
<g>
	<path fill="#169E54" d="M30.282,8.078c1.7-0.917,3.378-1.871,5.011-2.904c0.593-0.25,1.138-0.585,1.669-0.943
		c1.638-0.905,3.272-1.816,4.853-2.819c0.483-0.203,0.965-0.407,1.448-0.61c0.584,0.035,0.987,0.37,1.29,0.826
		c0.199,0.298,0.417,0.583,0.757,0.677c0.924,0.256,1.819,0.648,2.777,0.748c1.465,0.152,2.861,0.579,4.268,0.973
		c-0.97,0.229-1.904,0.564-2.769,1.059c-3.484,1.993-6.963,3.997-10.44,6.001c-3.498,2.016-6.961,4.094-10.495,6.043
		c-4.743,2.615-7.979,6.526-10.214,11.378c-0.659,1.431-1.029,2.954-1.593,4.412c-0.292-0.004-0.526-0.167-0.761-0.303
		c-2.067-1.188-4.128-2.386-6.191-3.582c0.033-0.233,0.067-0.465,0.1-0.698c0.089-0.325,0.178-0.65,0.268-0.975
		c0.402-1.059,0.804-2.118,1.206-3.177c0.22-0.463,0.44-0.926,0.661-1.389c1.225-2.085,2.554-4.091,4.265-5.824
		c1.336-1.353,2.813-2.508,4.48-3.425c0.419-0.23,0.815-0.501,1.222-0.754c0.587-0.254,1.134-0.577,1.659-0.941
		c1.699-0.926,3.38-1.884,5.023-2.909C29.307,8.708,29.812,8.423,30.282,8.078z"/>
	<path fill="#08865B" d="M9.892,29.036c2.063,1.195,4.124,2.393,6.191,3.582c0.235,0.135,0.469,0.299,0.76,0.303
		c-0.141,1.351-0.426,2.69-0.428,4.053c-0.01,8.282-0.009,16.565,0.003,24.847c0.001,0.688,0.107,1.377,0.188,2.062
		c0.157,1.332,0.744,2.513,1.332,3.691c-0.096-0.031-0.193-0.062-0.289-0.093c-0.04-0.124-0.145-0.13-0.249-0.137
		c-0.436-0.338-0.916-0.6-1.422-0.818c-0.103-0.061-0.207-0.123-0.31-0.184c-0.475-0.309-0.951-0.618-1.482-0.828
		c-0.11-0.138-0.258-0.21-0.427-0.244c-0.379-0.289-0.791-0.519-1.231-0.7c-0.087-0.154-0.209-0.262-0.39-0.288
		c-0.381-0.374-0.763-0.749-1.144-1.123c-0.042-0.171-0.128-0.312-0.28-0.406c-0.199-0.408-0.399-0.816-0.598-1.224
		c-0.084-0.185-0.074-0.411-0.242-0.559c-0.105-0.554-0.209-1.109-0.314-1.663c-0.041-0.186-0.082-0.372-0.124-0.558
		c-0.001-0.694-0.003-1.387-0.004-2.081c-0.002-0.232-0.003-0.465-0.005-0.697c0.002-0.693,0.003-1.387,0.005-2.08
		c-0.002-0.232-0.003-0.465-0.005-0.697c0.002-0.693,0.003-1.387,0.005-2.08c-0.002-0.232-0.003-0.465-0.005-0.697
		c0.002-0.693,0.003-1.387,0.005-2.08c-0.002-0.232-0.003-0.465-0.005-0.697c0.002-0.693,0.003-1.387,0.005-2.08
		c-0.002-0.232-0.003-0.465-0.005-0.697c0.002-0.693,0.003-1.387,0.005-2.08c-0.002-0.232-0.003-0.465-0.005-0.697
		c0.002-0.693,0.003-1.387,0.005-2.08c-0.002-0.232-0.003-0.465-0.005-0.697c0.002-0.693,0.003-1.387,0.005-2.08
		c-0.002-0.232-0.003-0.465-0.005-0.697c0.002-0.693,0.003-1.387,0.005-2.08c-0.002-0.232-0.003-0.465-0.005-0.697
		c0.003-0.693,0.006-1.387,0.009-2.08c0.016-0.23,0.032-0.461,0.049-0.691C9.698,30.348,9.612,29.654,9.892,29.036z"/>
	<path fill="#2CE32D" d="M17.94,67.573c-0.588-1.179-1.175-2.359-1.332-3.691c-0.081-0.686-0.187-1.375-0.188-2.062
		c-0.013-8.282-0.013-16.565-0.003-24.847c0.002-1.363,0.287-2.701,0.428-4.053c0.564-1.459,0.934-2.981,1.593-4.412
		c2.235-4.852,5.471-8.763,10.214-11.378c3.534-1.949,6.998-4.027,10.495-6.043c3.478-2.004,6.956-4.008,10.44-6.001
		c0.865-0.495,1.799-0.83,2.769-1.059c0.825-0.23,1.671-0.094,2.507-0.141c0.324,0.05,0.647,0.1,0.971,0.15
		c0.177,0.068,0.353,0.136,0.53,0.203c0.421,0.222,0.842,0.444,1.263,0.666c0.145,0.121,0.29,0.242,0.435,0.363
		c0.269,0.287,0.538,0.574,0.807,0.86c0.137,0.2,0.274,0.399,0.411,0.599c0.225,0.476,0.449,0.952,0.674,1.428
		c0.034,0.115,0.067,0.23,0.101,0.346c0.13,0.593,0.26,1.186,0.39,1.779c-0.016,0.196-0.028,0.392,0.084,0.57
		c0.014,0.69,0.028,1.381,0.042,2.071c0.001,0.187,0.002,0.373,0.003,0.56c-0.001,0.739-0.002,1.478-0.003,2.217
		c0.001,0.187,0.002,0.373,0.003,0.56c-0.001,0.739-0.002,1.478-0.003,2.217c0.001,0.187,0.002,0.373,0.003,0.56
		c-0.001,0.739-0.002,1.478-0.003,2.217c0.001,0.187,0.002,0.373,0.003,0.56c-0.001,0.739-0.002,1.478-0.003,2.217
		c0.001,0.187,0.002,0.373,0.003,0.56c-0.001,0.739-0.002,1.478-0.003,2.217c0.001,0.187,0.002,0.373,0.003,0.56
		c-0.001,0.739-0.002,1.478-0.003,2.217c0.001,0.187,0.002,0.373,0.003,0.56c-0.001,0.739-0.002,1.478-0.003,2.217
		c0.001,0.187,0.002,0.373,0.003,0.56c-0.001,0.739-0.002,1.478-0.003,2.217c0.001,0.187,0.002,0.373,0.003,0.56
		c-0.01,0.741-0.021,1.482-0.031,2.223c-0.095,0.223-0.108,0.457-0.084,0.694c-0.136,0.793-0.273,1.586-0.409,2.379
		c-0.07,0.314-0.14,0.628-0.21,0.942c-0.407,1.114-0.815,2.228-1.222,3.342c-0.239,0.392-0.442,0.802-0.58,1.242
		c-1.042,1.82-2.136,3.603-3.508,5.203c-1.701,1.983-3.675,3.619-5.983,4.853c-0.505,0.27-0.981,0.595-1.47,0.895
		c-0.584,0.246-1.116,0.582-1.646,0.924c-1.637,0.926-3.289,1.826-4.874,2.843c-0.585,0.259-1.139,0.573-1.66,0.945
		c-1.701,0.92-3.377,1.884-5.022,2.902c-0.554,0.314-1.109,0.627-1.663,0.94c-1.458,0.835-2.908,1.684-4.375,2.502
		c-1.951,1.089-3.992,1.775-6.276,1.339c-0.831-0.159-1.553-0.548-2.265-0.974c-0.177-0.148-0.353-0.295-0.53-0.443
		C18.491,68.158,18.215,67.866,17.94,67.573z M28.34,67.08c0.213-0.084,0.44-0.144,0.637-0.257c2.682-1.53,5.364-3.061,8.038-4.604
		c3.033-1.751,6.06-3.512,9.088-5.273c1.394-0.811,2.86-1.526,4.157-2.47c2.326-1.694,4.241-3.805,5.765-6.266
		c1.037-1.675,1.919-3.424,2.549-5.283c0.839-2.475,1.117-5.025,1.055-7.654c-0.034-1.427,0.005-2.884,0.01-4.316
		c0.005-1.241,0.006-2.512-0.008-3.762c-0.017-1.525,0.011-3.07,0.011-4.593c0-1.172,0.083-2.366-0.03-3.556
		c-0.127-1.34-0.03-2.702-0.028-4.054c0-0.092-0.005-0.192,0.027-0.274c0.209-0.537,0.028-1.027-0.166-1.518
		c0.268-1.168,0.198-2.345-0.019-3.501c-0.722-3.85-3.768-5.814-7.506-4.621c-1.759,0.562-3.295,1.566-4.872,2.467
		c-5.788,3.306-11.538,6.676-17.306,10.016c-1.655,0.959-3.323,1.887-4.746,3.2c-2.519,2.325-4.398,5.095-5.788,8.204
		c-1.168,2.611-1.863,5.328-1.853,8.223c0.028,8.05,0.017,16.101,0.003,24.151c-0.002,1.089,0.025,2.17,0.294,3.225
		c0.403,1.583,1.109,2.958,2.595,3.841c1.09,0.647,2.239,0.752,3.447,0.616C25.433,68.828,26.97,68.152,28.34,67.08z"/>
	<path fill="#1FC265" d="M54.862,3.886c-0.836,0.048-1.681-0.088-2.507,0.141c-1.407-0.394-2.803-0.821-4.268-0.973
		c-0.959-0.1-1.853-0.492-2.777-0.748c-0.34-0.094-0.558-0.379-0.757-0.677c-0.304-0.456-0.707-0.791-1.29-0.826
		c0.015-0.038,0.035-0.074,0.058-0.107c1.512-0.539,3.037-0.909,4.663-0.559c0.952,0.205,1.718,0.759,2.539,1.217
		c0.461,0.256,0.927,0.504,1.39,0.756c0.197,0.12,0.393,0.241,0.59,0.361c0.459,0.254,0.918,0.508,1.377,0.762
		c0.111,0.134,0.252,0.218,0.423,0.251C54.491,3.617,54.677,3.752,54.862,3.886z"/>
	<path fill="#1CBD1C" d="M28.34,67.08c-1.371,1.071-2.908,1.748-4.644,1.943c-1.208,0.136-2.356,0.031-3.447-0.616
		c-1.486-0.882-2.192-2.258-2.595-3.841c-0.269-1.054-0.296-2.136-0.294-3.225c0.013-8.05,0.025-16.101-0.003-24.151
		c-0.01-2.895,0.686-5.612,1.853-8.223c1.39-3.109,3.269-5.879,5.788-8.204c1.423-1.314,3.091-2.242,4.746-3.2
		c5.768-3.341,11.519-6.711,17.306-10.016c1.578-0.901,3.113-1.905,4.872-2.467c3.737-1.194,6.784,0.771,7.506,4.621
		c0.217,1.156,0.287,2.332,0.019,3.501c-0.734,1.061-1.306,2.217-1.95,3.331c-2.718,4.705-5.442,9.406-8.165,14.108
		c-1.673,2.889-3.364,5.767-5.011,8.671c-0.495,0.872-1.143,1.669-1.411,2.663c-0.551-0.293-1.102-0.585-1.652-0.878
		c-0.102-0.149-0.256-0.214-0.422-0.258c-0.388-0.283-0.795-0.534-1.245-0.708c-0.051-0.137-0.187-0.135-0.294-0.182
		c-0.433-0.302-0.88-0.581-1.37-0.784c-0.148-0.16-0.334-0.255-0.541-0.315c-0.443-0.312-0.898-0.604-1.406-0.802
		c-0.103-0.148-0.257-0.213-0.422-0.26c-0.392-0.277-0.795-0.535-1.245-0.707c-0.055-0.135-0.191-0.139-0.301-0.185
		c-0.455-0.261-0.911-0.522-1.366-0.784c-0.076-0.305,0.206-0.319,0.359-0.413c0.563-0.346,1.157-0.643,1.705-1.011
		c0.762-0.512,0.889-1.149,0.444-1.925c-0.258-0.455-0.699-0.707-1.104-1c-0.143-0.127-0.286-0.254-0.429-0.381
		c-0.323-0.276-0.646-0.552-0.968-0.829c-0.08-0.148-0.199-0.251-0.36-0.304c-0.351-0.352-0.696-0.71-1.13-0.965
		c-0.153-0.134-0.305-0.267-0.458-0.401c-0.321-0.277-0.643-0.554-0.964-0.831c-0.13-0.214-0.352-0.314-0.549-0.445
		c-0.363-0.445-0.797-0.757-1.403-0.742c-0.98,0.095-1.378,0.8-1.68,1.605c-0.803,1.402-1.525,2.845-2.209,4.308
		c-0.288,0.435-0.533,0.891-0.697,1.388c-0.257,0.474-0.545,0.933-0.761,1.425c-0.206,0.469-0.27,0.962,0.18,1.366
		c0.077,0.154,0.198,0.256,0.365,0.301c0.461,0.319,0.933,0.618,1.453,0.834c0.109,0.139,0.253,0.218,0.427,0.247
		c0.378,0.288,0.78,0.533,1.225,0.703c0.195,0.122,0.391,0.243,0.586,0.365c0.458,0.257,0.916,0.514,1.375,0.77
		c0.074,0.044,0.148,0.088,0.222,0.132c0.457,0.319,0.926,0.617,1.446,0.828c0.107,0.143,0.257,0.213,0.426,0.251
		c0.38,0.287,0.782,0.534,1.229,0.704c0.193,0.121,0.387,0.242,0.58,0.362c0.459,0.255,0.918,0.511,1.377,0.766
		c0.039,0.11,0.134,0.126,0.232,0.137c0.451,0.323,0.917,0.621,1.436,0.827c0.105,0.146,0.258,0.212,0.425,0.255
		c0.382,0.286,0.787,0.531,1.233,0.705c0.18,0.11,0.361,0.22,0.541,0.331c0.453,0.296,0.903,0.598,1.413,0.792
		c0.103,0.148,0.255,0.215,0.423,0.256c0.231,0.154,0.462,0.308,0.693,0.462c-0.001,0.393-0.235,0.687-0.419,1.005
		c-1.118,1.932-2.233,3.866-3.349,5.8c-1.668,2.89-3.346,5.775-5.002,8.671C30.076,63.999,29.118,65.489,28.34,67.08z"/>
	<path fill="#26D326" d="M42.91,41.975c0.268-0.994,0.916-1.791,1.411-2.663c1.647-2.904,3.338-5.782,5.011-8.671
		c2.723-4.702,5.447-9.404,8.165-14.108c0.644-1.114,1.216-2.27,1.95-3.331c0.194,0.491,0.374,0.981,0.166,1.518
		c-0.032,0.083-0.027,0.182-0.027,0.274c-0.002,1.352-0.099,2.714,0.028,4.054c0.113,1.19,0.03,2.384,0.03,3.556
		c0,1.524-0.028,3.068-0.011,4.593c0.014,1.249,0.012,2.52,0.008,3.762c-0.005,1.431-0.044,2.888-0.01,4.316
		c0.062,2.628-0.216,5.178-1.055,7.654c-0.63,1.859-1.513,3.608-2.549,5.283c-1.524,2.461-3.438,4.572-5.765,6.266
		c-1.298,0.945-2.763,1.659-4.157,2.47c-3.027,1.761-6.054,3.522-9.088,5.273c-2.674,1.544-5.356,3.074-8.038,4.604
		c-0.197,0.112-0.424,0.172-0.637,0.257c0.777-1.592,1.736-3.081,2.614-4.616c1.657-2.897,3.334-5.782,5.002-8.671
		c1.116-1.933,2.23-3.868,3.349-5.8c0.184-0.318,0.418-0.612,0.419-1.005c0.093,0.027,0.187,0.053,0.28,0.08
		c0.02,0.034,0.048,0.046,0.086,0.037c0.136,0.161,0.318,0.243,0.514,0.3c0.487,0.282,0.974,0.565,1.461,0.847
		c0.12,0.12,0.254,0.215,0.428,0.237c0.549,0.393,1.165,0.45,1.811,0.361c0.402-0.002,0.769-0.122,1.109-0.332
		c0.973-0.304,1.945-0.609,2.918-0.913c0.383-0.086,0.765-0.174,1.113-0.366c1.042-0.259,2.067-0.569,3.063-0.972
		c0.397-0.106,0.809-0.177,1.189-0.327c0.847-0.335,1.135-1.102,0.768-1.949c-0.161-0.449-0.538-0.649-0.942-0.817
		c-0.13-0.162-0.309-0.242-0.5-0.304c-0.42-0.307-0.857-0.588-1.336-0.796c-0.192-0.122-0.385-0.244-0.577-0.366
		c-0.354-0.205-0.707-0.411-1.061-0.616c-0.13-0.162-0.309-0.241-0.499-0.304c-0.42-0.307-0.857-0.587-1.335-0.795
		c-0.15-0.166-0.335-0.268-0.558-0.299c-0.124-0.05-0.245-0.116-0.374-0.149c-1.623-0.418-2.474,0.111-2.762,1.712
		c-0.028,0.158-0.074,0.318-0.069,0.476c0.02,0.637-0.355,0.712-0.85,0.607c-0.178-0.038-0.346-0.12-0.519-0.181
		C43.024,42.097,42.967,42.036,42.91,41.975z"/>
	<path fill="#E6F1F0" d="M31.162,29.286c0.433,0.255,0.779,0.613,1.13,0.965c-0.145,0.11-0.305,0.206-0.432,0.333
		c-2.38,2.374-4.757,4.751-7.131,7.131c-0.111,0.112-0.194,0.252-0.29,0.379c-0.52-0.215-0.992-0.515-1.453-0.834
		c0.276-0.097,0.44-0.332,0.634-0.526c2.307-2.302,4.61-4.609,6.917-6.91C30.73,29.63,30.952,29.465,31.162,29.286z"/>
	<path fill="#E5F1F0" d="M22.62,36.96c-0.45-0.403-0.386-0.896-0.18-1.366c0.216-0.491,0.504-0.951,0.761-1.425
		c0.32-0.005,0.469-0.266,0.659-0.455c1.741-1.734,3.477-3.475,5.217-5.209c0.19-0.19,0.344-0.444,0.663-0.451
		c0.321,0.277,0.643,0.554,0.964,0.831c-0.166,0.19-0.321,0.391-0.499,0.569c-2.302,2.307-4.606,4.612-6.914,6.913
		C23.08,36.578,22.844,36.763,22.62,36.96z"/>
	<path fill="#E6F1F0" d="M26.09,39.044c-0.445-0.17-0.847-0.416-1.225-0.703c1.899-1.923,3.793-3.85,5.698-5.766
		c0.683-0.687,1.392-1.347,2.089-2.02c0.323,0.276,0.646,0.552,0.968,0.829c-0.006,0.32-0.264,0.473-0.454,0.664
		c-1.888,1.894-3.775,3.788-5.674,5.671C27.035,38.171,26.632,38.682,26.09,39.044z"/>
	<path fill="#E6F1F0" d="M28.05,40.18c-0.458-0.257-0.916-0.514-1.375-0.77c0.027-0.315,0.291-0.46,0.481-0.65
		c2.117-2.125,4.241-4.244,6.359-6.368c0.193-0.194,0.428-0.357,0.533-0.627c0.405,0.292,0.846,0.545,1.104,1
		c-0.165,0.191-0.319,0.392-0.497,0.571c-2.037,2.043-4.08,4.08-6.116,6.123C28.333,39.665,28.055,39.832,28.05,40.18z"/>
	<path fill="#E5F1F0" d="M42.91,41.975c0.057,0.061,0.114,0.122,0.172,0.183c-0.121,0.265-0.365,0.188-0.574,0.208
		c-0.048-0.092-0.095-0.103-0.142,0l0.003-0.001c-1.288,1.122-2.436,2.386-3.644,3.589c-0.072,0.072-0.079,0.209-0.116,0.316
		c-0.51-0.195-0.96-0.497-1.413-0.792c0.16-0.194,0.307-0.401,0.483-0.579c1.039-1.048,2.088-2.088,3.127-3.136
		c0.19-0.191,0.448-0.345,0.451-0.666C41.808,41.39,42.359,41.682,42.91,41.975z"/>
	<path fill="#E5F1F0" d="M33.33,43.224c-0.459-0.255-0.918-0.511-1.377-0.766c0.023-0.289,0.262-0.425,0.437-0.601
		c1.058-1.067,2.125-2.126,3.185-3.192c0.175-0.176,0.406-0.322,0.405-0.617c0.508,0.198,0.963,0.489,1.406,0.802
		c-1.1,1.305-2.392,2.421-3.563,3.656C33.622,42.718,33.337,42.877,33.33,43.224z"/>
	<path fill="#E5F1F0" d="M37.926,39.165c0.49,0.203,0.937,0.482,1.37,0.784c-1.56,1.284-2.925,2.765-4.299,4.238
		c-0.519-0.206-0.985-0.504-1.436-0.827c0.287-0.121,0.462-0.373,0.674-0.58C35.469,41.578,36.697,40.371,37.926,39.165z"/>
	<path fill="#E5F1F0" d="M31.373,42.096c-0.447-0.17-0.849-0.418-1.229-0.704c0.231-0.254,0.455-0.516,0.694-0.762
		c1.156-1.185,2.315-2.366,3.474-3.548c0.451,0.173,0.854,0.43,1.245,0.707c-0.025,0.087-0.024,0.2-0.08,0.256
		C34.119,39.405,32.817,40.822,31.373,42.096z"/>
	<path fill="#E5F1F0" d="M39.59,40.131c0.45,0.174,0.857,0.425,1.245,0.708c-0.039,0.105-0.049,0.239-0.121,0.31
		c-1.351,1.335-2.632,2.741-4.059,3.999c-0.445-0.175-0.851-0.419-1.233-0.705c0.264-0.287,0.524-0.577,0.793-0.859
		C37.327,42.419,38.54,41.355,39.59,40.131z"/>
	<path fill="#E5F1F0" d="M29.718,41.14c-0.519-0.211-0.988-0.509-1.445-0.828c0.29-0.117,0.466-0.37,0.678-0.577
		c1.234-1.205,2.464-2.414,3.695-3.622c0.455,0.261,0.911,0.522,1.366,0.784C32.463,38.192,31.083,39.659,29.718,41.14z"/>
	<path fill="#E5F1F0" d="M23.898,32.781c0.684-1.463,1.406-2.907,2.209-4.308c0.744-0.342,1.228-0.957,1.68-1.605
		c0.606-0.015,1.04,0.297,1.403,0.742c-1.597,1.778-3.346,3.405-5.035,5.092C24.099,32.757,23.985,32.756,23.898,32.781z"/>
	<path fill="#DCE7E6" d="M32.645,36.113c-1.231,1.208-2.461,2.417-3.695,3.622c-0.212,0.207-0.388,0.46-0.678,0.577
		c-0.074-0.044-0.148-0.088-0.222-0.132c0.005-0.347,0.283-0.515,0.489-0.722c2.037-2.043,4.079-4.081,6.116-6.123
		c0.178-0.178,0.332-0.38,0.497-0.571c0.445,0.776,0.319,1.412-0.444,1.925c-0.547,0.368-1.142,0.665-1.705,1.011
		C32.851,35.794,32.569,35.808,32.645,36.113z"/>
	<path fill="#DCE7E6" d="M22.62,36.96c0.224-0.197,0.46-0.382,0.671-0.592c2.307-2.302,4.612-4.606,6.914-6.913
		c0.178-0.178,0.333-0.379,0.499-0.569c0.153,0.134,0.305,0.267,0.458,0.401c-0.209,0.179-0.432,0.344-0.626,0.538
		c-2.308,2.302-4.61,4.608-6.917,6.91c-0.194,0.194-0.358,0.429-0.634,0.526C22.817,37.216,22.697,37.114,22.62,36.96z"/>
	<path fill="#DCE7E6" d="M32.651,30.555c-0.697,0.673-1.406,1.333-2.089,2.02c-1.905,1.916-3.799,3.843-5.698,5.766
		c-0.173-0.028-0.317-0.108-0.427-0.247c0.096-0.127,0.179-0.267,0.29-0.379c2.374-2.38,4.751-4.757,7.131-7.131
		c0.128-0.127,0.287-0.223,0.432-0.333C32.452,30.304,32.571,30.407,32.651,30.555z"/>
	<path fill="#DCE7E6" d="M34.049,31.764c-0.105,0.27-0.34,0.433-0.533,0.627c-2.119,2.124-4.242,4.242-6.359,6.368
		c-0.19,0.19-0.454,0.336-0.481,0.65c-0.195-0.122-0.391-0.243-0.586-0.365c0.543-0.362,0.946-0.873,1.402-1.326
		c1.898-1.883,3.786-3.777,5.674-5.671c0.19-0.191,0.448-0.343,0.454-0.664C33.763,31.511,33.906,31.637,34.049,31.764z"/>
	<path fill="#DCE7E6" d="M23.898,32.781c0.087-0.025,0.201-0.024,0.257-0.08c1.689-1.687,3.438-3.314,5.035-5.092
		c0.198,0.13,0.419,0.231,0.549,0.445c-0.318,0.007-0.472,0.262-0.663,0.451c-1.741,1.735-3.476,3.475-5.217,5.209
		c-0.189,0.189-0.338,0.45-0.659,0.455C23.365,33.672,23.61,33.216,23.898,32.781z"/>
	<path fill="#DCE7E6" d="M31.373,42.096c1.444-1.273,2.746-2.691,4.105-4.051c0.056-0.056,0.055-0.169,0.08-0.256
		c0.165,0.047,0.319,0.111,0.422,0.26c0.001,0.295-0.23,0.441-0.405,0.617c-1.06,1.065-2.126,2.125-3.185,3.192
		c-0.174,0.176-0.414,0.312-0.437,0.601C31.759,42.337,31.566,42.216,31.373,42.096z"/>
	<path fill="#DCE7E6" d="M36.655,45.148c1.427-1.258,2.708-2.664,4.059-3.999c0.072-0.071,0.082-0.205,0.121-0.31
		c0.166,0.045,0.32,0.11,0.422,0.258c-0.003,0.321-0.261,0.475-0.451,0.666c-1.04,1.048-2.088,2.087-3.127,3.136
		c-0.176,0.178-0.323,0.386-0.483,0.579C37.016,45.368,36.835,45.258,36.655,45.148z"/>
	<path fill="#DCE7E6" d="M39.59,40.131c-1.05,1.224-2.263,2.289-3.375,3.452c-0.269,0.282-0.529,0.573-0.793,0.859
		c-0.167-0.043-0.32-0.109-0.425-0.255c1.374-1.473,2.739-2.954,4.299-4.238C39.403,39.996,39.54,39.994,39.59,40.131z"/>
	<path fill="#DCE7E6" d="M37.926,39.165c-1.23,1.206-2.458,2.413-3.69,3.615c-0.212,0.207-0.387,0.459-0.674,0.58
		c-0.098-0.011-0.193-0.026-0.232-0.137c0.007-0.347,0.292-0.506,0.493-0.718c1.171-1.235,2.464-2.351,3.563-3.656
		C37.592,38.91,37.778,39.006,37.926,39.165z"/>
	<path fill="#DCE7E6" d="M29.718,41.14c1.365-1.481,2.745-2.948,4.293-4.244c0.11,0.047,0.246,0.05,0.301,0.185
		c-1.158,1.182-2.318,2.363-3.474,3.548c-0.24,0.246-0.463,0.507-0.694,0.762C29.975,41.353,29.825,41.283,29.718,41.14z"/>
	<path fill="#DCE7E6" d="M38.609,46.271c0.037-0.107,0.044-0.244,0.116-0.316c1.208-1.203,2.356-2.467,3.644-3.589
		c-0.085,0.695-0.465,1.217-0.972,1.666c-0.483,0.314-0.849,0.757-1.232,1.171c-0.393,0.425-0.958,0.712-1.133,1.324
		C38.864,46.485,38.712,46.418,38.609,46.271z"/>
	<path fill="#E5F1F0" d="M39.031,46.527c0.175-0.612,0.74-0.898,1.133-1.324c0.383-0.415,0.749-0.857,1.232-1.171
		c0.011,0.394-0.237,0.685-0.396,1.014c-0.326,0.677-0.905,1.23-0.996,2.022c-0.093-0.027-0.187-0.053-0.28-0.08
		C39.493,46.835,39.262,46.681,39.031,46.527z"/>
	<path fill="#DCE7E6" d="M27.787,26.868c-0.452,0.648-0.935,1.263-1.68,1.605C26.41,27.668,26.807,26.963,27.787,26.868z"/>
	<path fill="#FDFEFD" d="M42.066,48.252c-0.487-0.282-0.974-0.565-1.461-0.847c0.274-0.097,0.442-0.326,0.636-0.52
		c1.712-1.708,3.416-3.425,5.134-5.126c0.604-0.598,1.153-1.254,1.839-1.767c0.479,0.209,0.915,0.488,1.335,0.795
		C46.948,43.169,44.475,45.678,42.066,48.252z"/>
	<path fill="#FDFEFD" d="M44.305,48.851c-0.645,0.089-1.262,0.031-1.811-0.361c0.051-0.076,0.091-0.164,0.155-0.227
		c2.288-2.293,4.579-4.583,6.868-6.875c0.151-0.151,0.305-0.284,0.531-0.295c0.354,0.205,0.707,0.411,1.061,0.616
		c-0.03,0.314-0.295,0.459-0.485,0.65c-1.942,1.95-3.891,3.893-5.832,5.843C44.602,48.393,44.34,48.539,44.305,48.851z"/>
	<path fill="#FCFDFC" d="M40.004,47.068c0.091-0.792,0.67-1.345,0.996-2.022c0.159-0.33,0.407-0.62,0.396-1.014
		c0.507-0.449,0.887-0.972,0.972-1.666c0,0-0.002,0.001-0.002,0.001c0.047,0,0.094,0,0.142,0c0.209-0.019,0.454,0.058,0.574-0.208
		c0.173,0.062,0.341,0.143,0.519,0.181c0.495,0.105,0.87,0.03,0.85-0.607c-0.005-0.158,0.041-0.318,0.069-0.476
		c0.288-1.601,1.139-2.13,2.762-1.712c0.129,0.033,0.25,0.099,0.374,0.149c-0.05,0.077-0.088,0.165-0.151,0.229
		c-2.293,2.299-4.59,4.595-6.884,6.893c-0.15,0.151-0.307,0.279-0.53,0.29C40.053,47.114,40.024,47.102,40.004,47.068z"/>
	<path fill="#FDFEFD" d="M51.686,42.075c0.48,0.208,0.916,0.488,1.336,0.796c-1.667,1.419-3.153,3.021-4.66,4.602
		c-0.027,0.028-0.021,0.088-0.031,0.133c-0.973,0.304-1.945,0.609-2.918,0.913c-0.013-0.293,0.201-0.45,0.378-0.627
		c0.797-0.799,1.586-1.605,2.395-2.391C49.357,44.362,50.444,43.14,51.686,42.075z"/>
	<path fill="#FCFDFC" d="M52.507,46.268c-0.996,0.403-2.021,0.713-3.063,0.972c-0.007-0.203,0.113-0.339,0.246-0.471
		c1.102-1.101,2.204-2.202,3.304-3.305c0.149-0.15,0.305-0.278,0.527-0.289c0.405,0.168,0.781,0.369,0.942,0.817
		c-0.279,0.462-0.739,0.759-1.074,1.168C53.091,45.525,52.586,45.727,52.507,46.268z"/>
	<path fill="#F3F3F3" d="M40.091,47.105c0.224-0.011,0.38-0.139,0.53-0.29c2.294-2.298,4.59-4.594,6.884-6.893
		c0.063-0.063,0.101-0.152,0.151-0.229c0.223,0.031,0.408,0.132,0.558,0.299c-0.686,0.513-1.235,1.169-1.839,1.767
		c-1.719,1.701-3.422,3.418-5.134,5.126c-0.194,0.193-0.361,0.423-0.636,0.52C40.409,47.348,40.226,47.266,40.091,47.105z"/>
	<path fill="#F3F3F3" d="M50.048,41.092c-0.226,0.01-0.38,0.144-0.531,0.295c-2.289,2.292-4.58,4.582-6.868,6.875
		c-0.064,0.064-0.104,0.151-0.155,0.227c-0.174-0.022-0.308-0.118-0.428-0.237c2.409-2.574,4.882-5.083,7.483-7.464
		C49.739,40.851,49.918,40.931,50.048,41.092z"/>
	<path fill="#F2F4F2" d="M51.686,42.075c-1.242,1.065-2.33,2.287-3.5,3.425c-0.809,0.787-1.598,1.593-2.395,2.391
		c-0.177,0.177-0.392,0.334-0.378,0.627c-0.34,0.21-0.707,0.33-1.109,0.332c0.035-0.312,0.297-0.458,0.487-0.649
		c1.942-1.95,3.891-3.893,5.832-5.843c0.19-0.191,0.455-0.336,0.485-0.65C51.302,41.831,51.494,41.953,51.686,42.075z"/>
	<path fill="#F2F4F2" d="M53.522,43.175c-0.223,0.011-0.378,0.139-0.527,0.289c-1.1,1.103-2.202,2.205-3.304,3.305
		c-0.132,0.132-0.253,0.267-0.246,0.471c-0.348,0.192-0.73,0.281-1.113,0.366c0.009-0.045,0.004-0.104,0.031-0.133
		c1.507-1.581,2.993-3.183,4.66-4.602C53.213,42.933,53.393,43.013,53.522,43.175z"/>
	<path fill="#F2F4F2" d="M52.507,46.268c0.078-0.541,0.584-0.743,0.883-1.108c0.335-0.409,0.795-0.706,1.074-1.168
		c0.366,0.847,0.079,1.614-0.768,1.949C53.316,46.091,52.905,46.161,52.507,46.268z"/>
	<path fill="#DCE7E6" d="M42.507,42.366c-0.047,0-0.094,0-0.142,0C42.413,42.262,42.46,42.274,42.507,42.366z"/>
</g>
</svg>
