<?xml version="1.0" encoding="utf-8"?>
<!-- Generator: Adobe Illustrator 17.0.0, SVG Export Plug-In . SVG Version: 6.00 Build 0)  -->
<!DOCTYPE svg PUBLIC "-//W3C//DTD SVG 1.1//EN" "http://www.w3.org/Graphics/SVG/1.1/DTD/svg11.dtd">
<svg version="1.1" id="Layer_1" xmlns="http://www.w3.org/2000/svg" xmlns:xlink="http://www.w3.org/1999/xlink" x="0px" y="0px"
	 width="70px" height="70px" viewBox="0 0 70 70" enable-background="new 0 0 70 70" xml:space="preserve">
<g>
	<path fill="#C63E2D" d="M17.971,49.283c0.235-1.31,0.493-2.617,0.807-3.91c0.114-0.471-0.06-0.638-0.427-0.781
		c-1.331-0.52-2.66-1.044-3.99-1.567c-0.39-0.179-0.779-0.359-1.169-0.538c1.639-2.262,3.535-4.314,5.286-6.484
		c0.152-0.188,0.312-0.352,0.272-0.616c-0.143-0.958-0.52-1.848-0.855-2.743c-0.591-1.579-0.992-3.225-1.708-4.757
		c0.935-0.277,1.705-0.876,2.553-1.321c1.455-0.764,2.872-1.602,4.302-2.412c0.155-0.088,0.371-0.129,0.362-0.379
		c0.505-0.645,0.439-1.457,0.608-2.193c0.449-1.955,0.833-3.925,1.242-5.89c2.202-0.4,4.394-0.843,6.55-1.451
		c0.698-0.471,0.902-1.281,1.297-1.95c1.124-1.901,2.174-3.846,3.273-5.762c0.178-0.311,0.309-0.629,0.41-0.966
		c0.555,0.115,0.9,0.711,1.526,0.663c0.49,0.711,1.321,0.925,2.003,1.347c1.532,0.95,1.529,0.902,2.846-0.358
		c1.766-1.691,3.565-3.346,5.35-5.016c0.05,0.127,0.113,0.25,0.148,0.381c0.307,1.142,0.465,2.322,0.855,3.443
		c0.141,1.094,0.472,2.146,0.698,3.221c0.109,0.52,0.393,0.25,0.629,0.16c2.21-0.846,4.419-1.697,6.628-2.546
		c-0.041,0.205-0.068,0.415-0.125,0.615c-0.63,2.215-1.264,4.429-1.897,6.642c-0.184,0.175-0.146,0.373,0.042,0.47
		c1.432,0.744,2.764,1.683,4.304,2.216c0.021,0.007,0.047-0.001,0.07-0.002c0,0-0.005-0.004-0.005-0.004
		c0.04,0.116,0.134,0.152,0.244,0.166c0,0,0.03,0.013,0.03,0.013c0.054,0.034,0.108,0.068,0.162,0.102
		c0.763,0.41,0.767,0.414,0.235,1.028c-1.592,1.835-3.177,3.677-4.791,5.492c-0.371,0.417-0.471,0.76-0.244,1.305
		c0.743,1.781,1.401,3.597,2.136,5.381c0.198,0.48,0.095,0.688-0.328,0.943c-2.18,1.312-4.339,2.66-6.509,3.989
		c-0.287,0.176-0.522,0.338-0.571,0.734c-0.319,2.572-0.672,5.14-0.997,7.711c-0.05,0.4-0.149,0.596-0.614,0.673
		c-1.577,0.263-3.173,0.416-4.728,0.805c-0.536,0.063-1.072,0.129-1.609,0.186c-0.418,0.045-0.571,0.37-0.742,0.68
		c-1.342,2.431-2.698,4.855-4.014,7.3c-0.243,0.452-0.429,0.481-0.846,0.235c-1.216-0.717-2.466-1.376-3.683-2.093
		c-0.328-0.193-0.537-0.16-0.804,0.071c-1.496,1.293-3.002,2.574-4.505,3.86c-0.049,0.041-0.097,0.083-0.146,0.124
		c-0.71,0.592-1.415,1.19-2.135,1.77c-0.149,0.12-0.24,0.467-0.547,0.218c0.087-0.058,0.097-0.109-0.013-0.15l0.003,0.005
		c-0.078-1.389-0.549-2.704-0.762-4.069c-0.104-0.67-0.265-1.332-0.382-2c-0.081-0.462-0.284-0.671-0.746-0.42
		c-0.906,0.493-1.951,0.679-2.813,1.269c-1.041,0.199-1.931,0.813-2.952,1.066C17.319,51.863,17.737,50.592,17.971,49.283z
		 M21.627,44.65c1.449,2.428,3.678,3.591,6.447,3.745c3.069,0.171,5.898-0.736,8.507-2.24c8.21-4.733,13.703-11.646,16.23-20.804
		c0.828-3,0.97-6.077-0.329-9.025c-1.321-2.996-3.68-4.59-6.945-4.779c-3.147-0.182-6.043,0.77-8.702,2.322
		c-7.909,4.614-13.208,11.336-15.866,20.109c-0.487,1.608-0.711,3.271-0.689,5.018C20.248,40.956,20.581,42.898,21.627,44.65z"/>
	<path fill="#FDD701" d="M43.883,45.139c-0.536,0.063-1.072,0.129-1.609,0.186c-0.418,0.045-0.571,0.37-0.742,0.68
		c-1.342,2.431-2.698,4.855-4.014,7.3c-0.243,0.452-0.429,0.481-0.846,0.235c-1.216-0.717-2.466-1.376-3.683-2.093
		c-0.328-0.193-0.537-0.16-0.804,0.071c-1.496,1.293-3.002,2.574-4.505,3.86c0,4.543-0.002,9.087,0.004,13.63
		c0,0.271-0.099,0.569,0.123,0.811c2.509-3.484,5.03-6.959,7.515-10.46c0.339-0.477,0.624-0.546,1.156-0.368
		c2.256,0.755,4.533,1.446,6.789,2.2c0.545,0.182,0.627,0.035,0.626-0.474C43.88,55.525,43.884,50.332,43.883,45.139z"/>
	<path fill="#912722" d="M31.806,14.24c0.698-0.471,0.902-1.281,1.297-1.95c1.124-1.901,2.174-3.846,3.273-5.762
		c0.178-0.311,0.309-0.629,0.41-0.966c-1.191-0.611-2.386-1.214-3.569-1.84c-0.264-0.14-0.414-0.129-0.567,0.136
		c-1.565,2.705-3.137,5.407-4.706,8.11C29.231,12.726,30.519,13.483,31.806,14.24z"/>
	<path fill="#C67D01" d="M27.535,55.503c-0.71,0.592-1.415,1.19-2.135,1.77c-0.149,0.12-0.24,0.467-0.547,0.218
		c-0.004-0.05-0.008-0.1-0.013-0.15c0,0,0.003,0.005,0.003,0.005c-0.407,0.052-0.657-0.272-0.984-0.411
		c-0.002,3.446,0.002,6.891-0.015,10.337c-0.002,0.379,0.109,0.597,0.44,0.783c1.108,0.621,2.132,1.384,3.278,1.942
		C27.553,65.165,27.544,60.334,27.535,55.503z"/>
	<path fill="#FC5E43" d="M13.193,42.486c1.639-2.262,3.535-4.314,5.286-6.484c0.152-0.188,0.312-0.352,0.272-0.617
		c-0.244-0.136-0.486-0.275-0.733-0.407c-1.189-0.635-2.264-1.468-3.497-2.029c-1.744,2.281-3.488,4.562-5.232,6.844
		c-0.14,0.184-0.352,0.356,0.014,0.547C10.617,41.025,11.842,41.869,13.193,42.486z"/>
	<path fill="#FC5E43" d="M38.312,6.226c0.49,0.711,1.321,0.925,2.003,1.347c1.532,0.95,1.529,0.902,2.846-0.358
		c1.766-1.691,3.565-3.346,5.35-5.016c-0.851-0.714-1.893-1.094-2.849-1.625c-1.518-0.843-1.519-0.813-2.678,0.472
		c-1.37,1.519-2.761,3.02-4.14,4.531C38.656,5.783,38.489,6.009,38.312,6.226z"/>
	<path fill="#912722" d="M17.188,53.192c0.131-1.329,0.548-2.601,0.783-3.91c0.235-1.31,0.493-2.617,0.807-3.91
		c0.114-0.471-0.06-0.638-0.427-0.781c-1.331-0.52-2.66-1.044-3.99-1.567c-0.488,2.464-0.972,4.928-1.47,7.39
		c-0.053,0.262-0.164,0.487,0.167,0.651C14.446,51.753,15.761,52.582,17.188,53.192z"/>
	<path fill="#912722" d="M23.406,23.774c0.505-0.645,0.439-1.457,0.608-2.193c0.449-1.955,0.833-3.925,1.242-5.89
		c-0.21-0.104-0.419-0.21-0.63-0.311c-1.246-0.599-2.386-1.409-3.7-1.873c-0.487,2.697-0.973,5.394-1.46,8.092
		C20.779,22.324,22.092,23.049,23.406,23.774z"/>
	<path fill="#FC5D42" d="M23.406,23.774c-1.313-0.725-2.627-1.45-3.94-2.175c-2.352,1.303-4.704,2.605-7.054,3.913
		c-0.069,0.038-0.101,0.141-0.151,0.213c1.309,0.72,2.618,1.44,3.927,2.16c0.935-0.277,1.705-0.876,2.553-1.321
		c1.455-0.764,2.872-1.602,4.302-2.412C23.199,24.065,23.415,24.024,23.406,23.774z"/>
	<path fill="#912722" d="M16.188,27.885c-1.309-0.72-2.618-1.44-3.927-2.16c0.753,2.408,1.507,4.816,2.26,7.224
		c1.232,0.561,2.307,1.393,3.497,2.029c0.246,0.132,0.489,0.271,0.733,0.407c-0.143-0.958-0.52-1.848-0.855-2.743
		C17.306,31.064,16.905,29.418,16.188,27.885z"/>
	<path fill="#FC5E43" d="M49.513,6.023c0.141,1.094,0.472,2.146,0.698,3.221c0.109,0.52,0.393,0.25,0.629,0.16
		c2.21-0.846,4.419-1.697,6.628-2.546c0.01-0.247-0.21-0.295-0.357-0.39c-1.066-0.694-2.146-1.367-3.204-2.074
		C53.592,4.185,53.335,4.168,53,4.334C51.845,4.911,50.677,5.462,49.513,6.023z"/>
	<path fill="#FC5D42" d="M20.926,13.507c1.314,0.464,2.454,1.274,3.7,1.873c0.211,0.101,0.42,0.207,0.63,0.311
		c2.202-0.399,4.394-0.843,6.55-1.451c-1.287-0.757-2.575-1.515-3.862-2.272c-2.218,0.458-4.436,0.915-6.653,1.38
		C21.166,13.375,21.001,13.349,20.926,13.507z"/>
	<path fill="#912722" d="M23.859,56.935c0.327,0.139,0.577,0.463,0.984,0.411c-0.078-1.389-0.549-2.704-0.762-4.069
		c-0.104-0.67-0.265-1.332-0.382-2c-0.081-0.462-0.284-0.671-0.746-0.42c-0.906,0.493-1.951,0.679-2.813,1.269
		c0.119,0.736,0.247,1.472,0.354,2.21c0.068,0.469,0.283,0.777,0.72,1.014C22.117,55.84,22.98,56.403,23.859,56.935z"/>
	<path fill="#FC5E43" d="M55.445,14.116c-0.184,0.175-0.146,0.373,0.042,0.47c1.432,0.744,2.764,1.683,4.304,2.216
		c0.021,0.007,0.047-0.001,0.07-0.002C58.468,15.777,57.124,14.671,55.445,14.116z"/>
	<path fill="#E7BD3B" d="M27.535,55.503c0.009,4.831,0.018,9.662,0.026,14.494c0.14,0.021,0.211-0.054,0.247-0.177
		c-0.221-0.242-0.122-0.539-0.123-0.811c-0.006-4.543-0.004-9.087-0.004-13.63C27.633,55.42,27.584,55.462,27.535,55.503z"/>
	<path fill="#FC5E43" d="M59.857,16.797c0.04,0.116,0.134,0.152,0.244,0.166C60.076,16.825,59.976,16.797,59.857,16.797z"/>
	<path fill="#FC5E43" d="M60.131,16.976c0.054,0.034,0.108,0.068,0.162,0.102C60.271,16.992,60.219,16.956,60.131,16.976z"/>
	<path fill="#FDF8D8" d="M20.969,33.979c2.658-8.773,7.957-15.495,15.866-20.109c2.659-1.552,5.555-2.503,8.702-2.322
		c3.265,0.188,5.624,1.782,6.945,4.779c1.3,2.947,1.157,6.025,0.329,9.025c-2.527,9.158-8.02,16.071-16.23,20.804
		c-2.609,1.504-5.439,2.411-8.507,2.24c-2.77-0.154-4.998-1.317-6.447-3.745c-1.046-1.752-1.379-3.695-1.347-5.654
		C20.258,37.25,20.482,35.587,20.969,33.979z M46.13,21.193c0.19-0.284,0.38-0.569,0.569-0.853
		c-0.034-0.032-0.068-0.065-0.102-0.097c-1.438,0.956-2.875,1.911-4.312,2.867c-0.647,0.431-1.308,0.843-1.934,1.303
		c-0.414,0.305-0.57,0.186-0.747-0.248c-1.024-2.521-2.072-5.033-3.112-7.548c-0.017-0.042-0.028-0.103-0.06-0.12
		c-0.1-0.054-0.105,0.036-0.123,0.099c-0.702,2.886-1.407,5.771-2.106,8.657c-0.264,1.092-0.513,2.188-0.769,3.283
		c-3.106,1.803-6.213,3.606-9.319,5.408c-0.133,0.348,0.172,0.256,0.315,0.297c2.007,0.57,4.016,1.134,6.025,1.697
		c0.203,0.057,0.409,0.102,0.614,0.152c-0.65,2.937-1.301,5.874-1.967,8.885c0.34-0.181,0.533-0.419,0.705-0.68
		c0.114-0.047,0.175-0.133,0.187-0.256l-0.002,0.014c0.175-0.075,0.297-0.193,0.31-0.396l0.022-0.01
		c1.362-1.225,2.471-2.685,3.72-4.015c1.011-1.077,1.993-2.182,2.988-3.274c2.413,0.007,4.826,0.016,7.239,0.018
		c0.145,0,0.343,0.076,0.403-0.16c-0.037-0.054-0.075-0.108-0.112-0.162c0,0,0.013,0.005,0.013,0.005
		c-1.003-2.215-2.113-4.377-3.249-6.525c0.339-0.959,0.964-1.76,1.463-2.63c0.864-1.508,1.768-2.993,2.652-4.489
		c0.117-0.199,0.292-0.374,0.288-0.629l-0.021,0.003c0.11-0.002,0.131-0.079,0.141-0.166l-0.008,0.012
		c0.129-0.055,0.159-0.164,0.162-0.29l-0.02,0.014C46.032,21.305,46.081,21.249,46.13,21.193z"/>
	<path fill="#912722" d="M24.84,57.341c0.004,0.05,0.008,0.1,0.013,0.15C24.94,57.433,24.95,57.382,24.84,57.341z"/>
	<path fill="#E7AD01" d="M31.068,36.091c-0.65,2.937-1.301,5.874-1.968,8.885c0.34-0.181,0.533-0.419,0.705-0.68
		c0.008-0.125,0.029-0.241,0.187-0.256c0,0-0.002,0.014-0.002,0.014c-0.035-0.241,0-0.426,0.31-0.395c0,0,0.022-0.01,0.021-0.011
		c-0.183-0.315,0.109-0.489,0.237-0.678c1.887-2.779,3.79-5.546,5.688-8.317c0.598-0.874,1.118-1.805,1.847-2.62
		c0.127,0.235-0.018,0.37-0.054,0.522c-0.305,1.276-0.812,2.498-1.008,3.803c2.413,0.007,4.826,0.016,7.239,0.018
		c0.145,0,0.343,0.076,0.403-0.16c-0.037-0.054-0.075-0.108-0.112-0.162c0,0,0.013,0.005,0.013,0.005
		c-0.11-0.031-0.243-0.032-0.327-0.096c-1.816-1.379-3.63-2.76-5.437-4.152c-0.278-0.214-0.472-0.469-0.52-0.875
		c-0.176-1.512-0.418-3.016-0.622-4.525c-0.264-1.951-0.508-3.904-0.776-5.854c-0.182-1.323-0.389-2.642-0.585-3.963
		c-0.702,2.886-1.407,5.771-2.106,8.657c-0.264,1.092-0.513,2.188-0.769,3.283c1.023,0.605,2.068,1.175,3.059,1.829
		c0.568,0.374,1.322,0.494,1.68,1.169C35.854,33.13,33.472,34.628,31.068,36.091z"/>
	<path fill="#FDD701" d="M36.309,16.597c0.196,1.321,0.403,2.64,0.585,3.963c0.268,1.95,0.512,3.903,0.776,5.854
		c0.204,1.509,0.445,3.013,0.622,4.525c0.047,0.405,0.242,0.66,0.52,0.875c1.806,1.392,3.62,2.774,5.437,4.152
		c0.085,0.064,0.217,0.066,0.327,0.096c-1.003-2.215-2.113-4.377-3.249-6.525c-0.917,0.362-1.619,1.096-2.595,1.582
		c0.073-0.19,0.085-0.262,0.123-0.315c2.019-2.729,4.031-5.463,6.073-8.175c0.226-0.301,0.348-0.742,0.801-0.841
		c0,0-0.021,0.003-0.021,0.003c0.047-0.055,0.094-0.11,0.141-0.165c0,0-0.008,0.012-0.008,0.011
		c-0.011-0.133,0.011-0.247,0.162-0.289c0,0-0.02,0.014-0.02,0.014c0.049-0.056,0.098-0.113,0.148-0.169
		c0.19-0.284,0.38-0.569,0.569-0.853c-0.034-0.032-0.068-0.065-0.102-0.097c-1.438,0.956-2.875,1.911-4.312,2.867
		c-0.647,0.431-1.308,0.843-1.934,1.303c-0.414,0.305-0.57,0.186-0.747-0.248c-1.024-2.521-2.072-5.033-3.112-7.548
		c-0.017-0.042-0.028-0.103-0.06-0.12C36.332,16.443,36.327,16.533,36.309,16.597z"/>
	<path fill="#FDD701" d="M38.173,31.534c-0.358-0.675-1.113-0.794-1.68-1.169c-0.991-0.653-2.036-1.224-3.059-1.829
		c-3.107,1.803-6.213,3.606-9.319,5.408c0.165-0.002,0.334,0.018,0.494-0.011c2.974-0.538,5.946-1.09,8.922-1.622
		C35.074,32.036,36.625,31.792,38.173,31.534z"/>
	<path fill="#C77F01" d="M38.173,31.534c-1.548,0.258-3.099,0.502-4.643,0.778c-2.975,0.532-5.947,1.084-8.922,1.622
		c-0.16,0.029-0.329,0.008-0.494,0.011c-0.133,0.348,0.172,0.256,0.315,0.297c2.007,0.57,4.016,1.134,6.025,1.697
		c0.203,0.057,0.409,0.102,0.614,0.152C33.472,34.628,35.854,33.13,38.173,31.534z"/>
	<path fill="#FDD703" d="M37.031,36.359c0.197-1.305,0.703-2.527,1.008-3.803c0.037-0.153,0.181-0.288,0.054-0.522
		c-0.729,0.815-1.249,1.746-1.847,2.62c-1.898,2.771-3.801,5.539-5.688,8.317c-0.128,0.189-0.419,0.363-0.237,0.678
		c1.363-1.225,2.472-2.684,3.721-4.015C35.054,38.556,36.036,37.452,37.031,36.359z"/>
	<path fill="#E6AE06" d="M45.728,21.788c-0.454,0.099-0.575,0.54-0.801,0.841c-2.042,2.712-4.054,5.446-6.073,8.175
		c-0.039,0.052-0.05,0.125-0.123,0.315c0.976-0.487,1.678-1.221,2.595-1.582c0.339-0.959,0.964-1.76,1.463-2.63
		c0.864-1.508,1.768-2.993,2.652-4.489C45.558,22.219,45.732,22.044,45.728,21.788z"/>
	<path fill="#FDD703" d="M30.301,43.659c-0.31-0.031-0.345,0.155-0.31,0.395C30.166,43.979,30.288,43.862,30.301,43.659z"/>
	<path fill="#FDD703" d="M29.993,44.041c-0.158,0.015-0.179,0.131-0.187,0.256C29.92,44.249,29.981,44.163,29.993,44.041z"/>
	<path fill="#E6AE06" d="M46.002,21.348c-0.151,0.042-0.173,0.157-0.162,0.289C45.969,21.582,45.999,21.473,46.002,21.348z"/>
	<path fill="#FDD701" d="M44.561,36.056c0.037,0.054,0.075,0.108,0.112,0.162C44.636,36.164,44.599,36.11,44.561,36.056z"/>
	<path fill="#E6AE06" d="M45.848,21.626c-0.047,0.055-0.094,0.11-0.141,0.165C45.817,21.789,45.839,21.713,45.848,21.626z"/>
	<path fill="#E6AE06" d="M46.13,21.193c-0.049,0.056-0.098,0.112-0.148,0.169C46.032,21.305,46.081,21.249,46.13,21.193z"/>
</g>
</svg>
